<svg xmlns="http://www.w3.org/2000/svg" xmlns:xlink="http://www.w3.org/1999/xlink" width="200" zoomAndPan="magnify" viewBox="0 0 150 52.499999" height="70" preserveAspectRatio="xMidYMid meet" version="1.0"><defs><g/><clipPath id="a45ddaa74e"><path d="M 31 26 L 36.613281 26 L 36.613281 28 L 31 28 Z M 31 26 " clip-rule="nonzero"/></clipPath><clipPath id="919f1ea5fd"><path d="M 1.921875 25 L 8 25 L 8 28 L 1.921875 28 Z M 1.921875 25 " clip-rule="nonzero"/></clipPath><clipPath id="0dacef2b45"><path d="M 15 7.878906 L 17 7.878906 L 17 13 L 15 13 Z M 15 7.878906 " clip-rule="nonzero"/></clipPath><clipPath id="033be617c1"><path d="M 22 7.878906 L 24 7.878906 L 24 13 L 22 13 Z M 22 7.878906 " clip-rule="nonzero"/></clipPath><clipPath id="cf46173ed3"><path d="M 8.371094 15 L 29.988281 15 L 29.988281 39 L 8.371094 39 Z M 8.371094 15 " clip-rule="nonzero"/></clipPath></defs><g clip-path="url(#a45ddaa74e)"><path fill="#545454" d="M 36.152344 27.34375 L 36.109375 27.34375 L 31.75 26.789062 C 31.664062 26.777344 31.59375 26.734375 31.539062 26.664062 C 31.484375 26.59375 31.460938 26.515625 31.472656 26.425781 C 31.484375 26.339844 31.527344 26.265625 31.597656 26.210938 C 31.667969 26.160156 31.746094 26.136719 31.835938 26.148438 L 36.191406 26.71875 C 36.277344 26.722656 36.351562 26.761719 36.410156 26.828125 C 36.46875 26.894531 36.496094 26.96875 36.488281 27.058594 C 36.484375 27.148438 36.445312 27.21875 36.378906 27.277344 C 36.3125 27.335938 36.238281 27.363281 36.148438 27.359375 Z M 36.152344 27.34375 " fill-opacity="1" fill-rule="nonzero"/></g><g clip-path="url(#919f1ea5fd)"><path fill="#545454" d="M 2.316406 27.027344 C 2.226562 27.035156 2.148438 27.007812 2.082031 26.945312 C 2.019531 26.886719 1.980469 26.816406 1.976562 26.726562 C 1.972656 26.636719 2 26.5625 2.058594 26.496094 C 2.117188 26.429688 2.191406 26.394531 2.28125 26.386719 L 6.648438 25.902344 C 6.734375 25.890625 6.816406 25.914062 6.882812 25.972656 C 6.953125 26.027344 6.992188 26.097656 7.003906 26.1875 C 7.011719 26.273438 6.988281 26.355469 6.933594 26.421875 C 6.878906 26.492188 6.804688 26.53125 6.71875 26.542969 L 2.351562 27.027344 Z M 2.316406 27.027344 " fill-opacity="1" fill-rule="nonzero"/></g><path fill="#545454" d="M 7.480469 20.539062 C 7.4375 20.539062 7.398438 20.53125 7.359375 20.515625 L 3.273438 18.921875 C 3.1875 18.890625 3.125 18.835938 3.089844 18.753906 C 3.050781 18.667969 3.046875 18.585938 3.082031 18.5 C 3.113281 18.417969 3.171875 18.355469 3.257812 18.320312 C 3.339844 18.289062 3.425781 18.289062 3.507812 18.324219 L 7.601562 19.925781 C 7.769531 19.988281 7.839844 20.105469 7.804688 20.285156 C 7.773438 20.460938 7.667969 20.550781 7.484375 20.546875 Z M 7.480469 20.539062 " fill-opacity="1" fill-rule="nonzero"/><path fill="#545454" d="M 10.953125 15.589844 C 10.855469 15.589844 10.773438 15.550781 10.710938 15.476562 L 7.832031 12.164062 C 7.773438 12.09375 7.75 12.015625 7.757812 11.929688 C 7.765625 11.839844 7.804688 11.765625 7.871094 11.710938 C 7.9375 11.652344 8.015625 11.628906 8.105469 11.636719 C 8.195312 11.644531 8.265625 11.683594 8.324219 11.75 L 11.203125 15.066406 C 11.261719 15.132812 11.289062 15.210938 11.28125 15.296875 C 11.273438 15.386719 11.238281 15.457031 11.171875 15.515625 C 11.109375 15.570312 11.035156 15.59375 10.953125 15.589844 Z M 10.953125 15.589844 " fill-opacity="1" fill-rule="nonzero"/><g clip-path="url(#0dacef2b45)"><path fill="#545454" d="M 16.347656 12.824219 C 16.175781 12.828125 16.070312 12.746094 16.027344 12.578125 L 15.027344 8.304688 C 15.007812 8.214844 15.019531 8.132812 15.070312 8.054688 C 15.117188 7.980469 15.183594 7.929688 15.273438 7.910156 C 15.363281 7.890625 15.445312 7.902344 15.519531 7.953125 C 15.597656 8 15.648438 8.070312 15.667969 8.15625 L 16.679688 12.433594 C 16.699219 12.519531 16.6875 12.601562 16.640625 12.675781 C 16.59375 12.75 16.523438 12.800781 16.4375 12.820312 C 16.410156 12.824219 16.378906 12.828125 16.347656 12.824219 Z M 16.347656 12.824219 " fill-opacity="1" fill-rule="nonzero"/></g><g clip-path="url(#033be617c1)"><path fill="#545454" d="M 22.40625 12.890625 C 22.378906 12.890625 22.351562 12.890625 22.324219 12.890625 C 22.242188 12.867188 22.175781 12.820312 22.128906 12.742188 C 22.085938 12.667969 22.074219 12.585938 22.09375 12.503906 L 23.179688 8.230469 C 23.203125 8.144531 23.25 8.078125 23.328125 8.035156 C 23.402344 7.988281 23.484375 7.976562 23.570312 8 C 23.65625 8.023438 23.722656 8.070312 23.765625 8.148438 C 23.8125 8.222656 23.824219 8.304688 23.800781 8.390625 L 22.714844 12.644531 C 22.675781 12.808594 22.574219 12.890625 22.40625 12.890625 Z M 22.40625 12.890625 " fill-opacity="1" fill-rule="nonzero"/></g><path fill="#545454" d="M 27.734375 15.75 C 27.59375 15.75 27.496094 15.6875 27.4375 15.5625 C 27.382812 15.433594 27.398438 15.320312 27.492188 15.214844 L 30.441406 11.953125 C 30.5 11.890625 30.574219 11.855469 30.664062 11.851562 C 30.753906 11.84375 30.832031 11.875 30.894531 11.933594 C 30.960938 11.992188 30.996094 12.070312 31 12.15625 C 31.003906 12.246094 30.976562 12.324219 30.917969 12.390625 L 27.96875 15.644531 C 27.90625 15.714844 27.828125 15.75 27.734375 15.75 Z M 27.734375 15.75 " fill-opacity="1" fill-rule="nonzero"/><path fill="#545454" d="M 31.113281 20.761719 C 30.933594 20.761719 30.828125 20.675781 30.796875 20.5 C 30.765625 20.324219 30.835938 20.203125 31.003906 20.144531 L 35.125 18.625 C 35.203125 18.601562 35.28125 18.609375 35.355469 18.648438 C 35.429688 18.683594 35.480469 18.742188 35.511719 18.820312 C 35.539062 18.898438 35.539062 18.976562 35.503906 19.054688 C 35.472656 19.128906 35.421875 19.1875 35.34375 19.222656 L 31.238281 20.746094 C 31.195312 20.757812 31.15625 20.765625 31.113281 20.761719 Z M 31.113281 20.761719 " fill-opacity="1" fill-rule="nonzero"/><g clip-path="url(#cf46173ed3)"><path fill="#1da8e7" d="M 23.644531 37.113281 C 23.648438 36.417969 23.8125 35.765625 24.132812 35.152344 C 24.457031 34.539062 24.902344 34.035156 25.46875 33.636719 C 26.199219 33.128906 26.851562 32.535156 27.425781 31.859375 C 28 31.179688 28.480469 30.4375 28.859375 29.632812 C 29.238281 28.828125 29.507812 27.988281 29.664062 27.113281 C 29.824219 26.238281 29.867188 25.355469 29.792969 24.46875 C 29.359375 19.429688 25.097656 15.398438 19.867188 15.050781 C 13.609375 14.628906 8.371094 19.398438 8.371094 25.335938 C 8.375 26.15625 8.476562 26.964844 8.675781 27.761719 C 8.878906 28.554688 9.167969 29.316406 9.550781 30.039062 C 9.9375 30.765625 10.398438 31.433594 10.945312 32.046875 C 11.488281 32.660156 12.101562 33.199219 12.773438 33.664062 C 13.335938 34.058594 13.773438 34.5625 14.089844 35.167969 C 14.402344 35.777344 14.558594 36.425781 14.558594 37.113281 L 14.558594 38.53125 L 23.644531 38.53125 Z M 23.644531 37.113281 " fill-opacity="1" fill-rule="nonzero"/></g><path fill="#ffffff" d="M 27.6875 28.179688 C 27.625 28.179688 27.558594 28.171875 27.496094 28.15625 C 27.300781 28.101562 27.148438 27.988281 27.046875 27.8125 C 26.945312 27.632812 26.921875 27.445312 26.976562 27.25 C 27.015625 27.09375 27.054688 26.921875 27.082031 26.777344 C 27.121094 26.578125 27.226562 26.417969 27.398438 26.304688 C 27.566406 26.191406 27.753906 26.152344 27.953125 26.195312 C 28.152344 26.234375 28.3125 26.335938 28.425781 26.507812 C 28.539062 26.675781 28.578125 26.863281 28.539062 27.0625 C 28.496094 27.257812 28.457031 27.441406 28.402344 27.632812 C 28.359375 27.792969 28.273438 27.925781 28.140625 28.027344 C 28.007812 28.128906 27.855469 28.179688 27.6875 28.179688 Z M 27.6875 28.179688 " fill-opacity="1" fill-rule="nonzero"/><path fill="#ffffff" d="M 21.363281 16.710938 C 23.265625 17.117188 24.890625 18.015625 26.242188 19.414062 C 27.632812 20.851562 28.441406 22.5625 28.671875 24.546875 C 28.695312 24.75 28.640625 24.933594 28.511719 25.09375 C 28.382812 25.253906 28.21875 25.34375 28.015625 25.363281 C 27.8125 25.386719 27.628906 25.335938 27.46875 25.207031 C 27.3125 25.078125 27.21875 24.910156 27.199219 24.707031 C 27.195312 24.695312 27.195312 24.679688 27.199219 24.667969 C 27.09375 22.96875 26.480469 21.476562 25.359375 20.195312 C 24.230469 18.882812 22.828125 18 21.152344 17.542969 C 21.046875 17.507812 20.964844 17.441406 20.910156 17.34375 C 20.851562 17.246094 20.839844 17.140625 20.863281 17.03125 C 20.890625 16.917969 20.949219 16.832031 21.042969 16.769531 C 21.136719 16.707031 21.242188 16.683594 21.355469 16.699219 Z M 21.363281 16.710938 " fill-opacity="1" fill-rule="nonzero"/><path fill="#545454" d="M 14.558594 38.53125 L 14.558594 40.859375 C 14.5625 41.066406 14.605469 41.261719 14.691406 41.449219 C 14.773438 41.636719 14.886719 41.800781 15.035156 41.945312 C 15.183594 42.085938 15.351562 42.195312 15.542969 42.269531 C 15.734375 42.34375 15.933594 42.378906 16.136719 42.375 L 22.066406 42.375 C 22.273438 42.378906 22.46875 42.34375 22.660156 42.269531 C 22.851562 42.195312 23.023438 42.085938 23.171875 41.945312 C 23.316406 41.800781 23.433594 41.636719 23.515625 41.449219 C 23.597656 41.261719 23.640625 41.066406 23.644531 40.859375 L 23.644531 38.53125 Z M 14.558594 38.53125 " fill-opacity="1" fill-rule="nonzero"/><path fill="#545454" d="M 15.902344 41.289062 C 15.910156 41.65625 15.988281 42.007812 16.132812 42.34375 C 16.28125 42.679688 16.484375 42.972656 16.75 43.226562 C 17.015625 43.480469 17.316406 43.675781 17.660156 43.808594 C 18 43.941406 18.355469 44.003906 18.722656 43.996094 L 19.484375 43.996094 C 19.851562 44.003906 20.203125 43.941406 20.542969 43.808594 C 20.886719 43.671875 21.1875 43.480469 21.453125 43.226562 C 21.714844 42.972656 21.921875 42.675781 22.070312 42.34375 C 22.214844 42.007812 22.292969 41.65625 22.300781 41.289062 Z M 15.902344 41.289062 " fill-opacity="1" fill-rule="nonzero"/><g fill="#000000" fill-opacity="1"><g transform="translate(41.151475, 33.302988)"><g><path d="M 12.78125 -2.96875 L 13 -2.671875 L 12.765625 0 L 2.0625 0 L 2.25 -5.078125 L 2.0625 -17.046875 L 12.859375 -17.046875 L 13.078125 -16.75 L 12.8125 -14.078125 L 8.734375 -14.21875 L 5.671875 -14.1875 L 5.578125 -10.078125 L 8.515625 -10.03125 L 11.296875 -10.109375 L 11.515625 -9.84375 L 11.28125 -7.171875 L 8.265625 -7.25 L 5.53125 -7.21875 L 5.5 -5.40625 L 5.578125 -2.828125 L 8.578125 -2.8125 Z M 12.78125 -2.96875 "/></g></g></g><g fill="#000000" fill-opacity="1"><g transform="translate(54.626702, 33.302988)"><g><path d="M 8.921875 -17.15625 C 11.390625 -17.15625 13.285156 -16.460938 14.609375 -15.078125 C 15.929688 -13.703125 16.59375 -11.726562 16.59375 -9.15625 C 16.59375 -6.132812 15.851562 -3.820312 14.375 -2.21875 C 12.894531 -0.613281 10.773438 0.1875 8.015625 0.1875 C 7.191406 0.1875 6.203125 0.164062 5.046875 0.125 C 3.890625 0.09375 2.894531 0.0507812 2.0625 0 L 2.25 -5.078125 L 2.0625 -17.046875 Z M 8.65625 -2.59375 C 11.457031 -2.59375 12.859375 -4.507812 12.859375 -8.34375 C 12.859375 -10.425781 12.519531 -11.9375 11.84375 -12.875 C 11.164062 -13.820312 10.101562 -14.296875 8.65625 -14.296875 C 7.71875 -14.296875 6.722656 -14.25 5.671875 -14.15625 L 5.5 -5.40625 L 5.578125 -2.78125 C 6.816406 -2.65625 7.84375 -2.59375 8.65625 -2.59375 Z M 8.65625 -2.59375 "/></g></g></g><g fill="#000000" fill-opacity="1"><g transform="translate(71.96712, 33.302988)"><g><path d="M 15.171875 -8.390625 L 15.140625 -6.140625 C 15.160156 -4.109375 14.566406 -2.535156 13.359375 -1.421875 C 12.160156 -0.316406 10.441406 0.234375 8.203125 0.234375 C 6.046875 0.234375 4.40625 -0.300781 3.28125 -1.375 C 2.15625 -2.445312 1.617188 -3.992188 1.671875 -6.015625 L 1.6875 -8.46875 L 1.609375 -17.046875 L 5.21875 -17.046875 L 5.03125 -6.484375 C 5.007812 -5.191406 5.28125 -4.238281 5.84375 -3.625 C 6.414062 -3.007812 7.273438 -2.703125 8.421875 -2.703125 C 10.710938 -2.703125 11.847656 -3.898438 11.828125 -6.296875 L 11.640625 -17.046875 L 15.296875 -17.046875 Z M 15.171875 -8.390625 "/></g></g></g><g fill="#000000" fill-opacity="1"><g transform="translate(88.857487, 33.302988)"><g><path d="M 5.671875 -14.1875 L 5.578125 -9.578125 L 7.96875 -9.5625 L 10.859375 -9.640625 L 11.09375 -9.375 L 10.828125 -6.703125 L 7.671875 -6.78125 L 5.53125 -6.75 L 5.5 -5.40625 L 5.671875 0 L 2.0625 0 L 2.25 -5.078125 L 2.0625 -17.046875 L 12.203125 -17.046875 L 12.40625 -16.75 L 12.15625 -14.0625 L 8.09375 -14.21875 Z M 5.671875 -14.1875 "/></g></g></g><g fill="#000000" fill-opacity="1"><g transform="translate(100.929597, 33.302988)"><g><path d="M 11.40625 -2.671875 L 11.171875 0 L 1.953125 0 L 2.140625 -5.078125 L 1.953125 -17.046875 L 5.609375 -17.046875 L 5.40625 -5.40625 L 5.484375 -2.96875 L 11.203125 -2.96875 Z M 11.40625 -2.671875 "/></g></g></g><g fill="#000000" fill-opacity="1"><g transform="translate(112.39281, 33.302988)"><g><path d="M 12.78125 -2.96875 L 13 -2.671875 L 12.765625 0 L 2.0625 0 L 2.25 -5.078125 L 2.0625 -17.046875 L 12.859375 -17.046875 L 13.078125 -16.75 L 12.8125 -14.078125 L 8.734375 -14.21875 L 5.671875 -14.1875 L 5.578125 -10.078125 L 8.515625 -10.03125 L 11.296875 -10.109375 L 11.515625 -9.84375 L 11.28125 -7.171875 L 8.265625 -7.25 L 5.53125 -7.21875 L 5.5 -5.40625 L 5.578125 -2.828125 L 8.578125 -2.8125 Z M 12.78125 -2.96875 "/></g></g></g><g fill="#000000" fill-opacity="1"><g transform="translate(125.868037, 33.302988)"><g><path d="M 10.53125 -8.921875 L 16.046875 0 L 11.71875 0 L 10.9375 -1.6875 L 8.09375 -6.109375 L 5.03125 -1.515625 L 4.265625 0 L 0.5625 0 L 6.015625 -8.421875 L 0.609375 -17.046875 L 4.921875 -17.046875 L 5.71875 -15.328125 L 8.390625 -11.171875 L 11.171875 -15.453125 L 11.890625 -17.046875 L 15.703125 -17.046875 Z M 10.53125 -8.921875 "/></g></g></g></svg>